<?xml version="1.0" encoding="UTF-8"?>
<svg id="Layer_2" data-name="Layer 2" xmlns="http://www.w3.org/2000/svg" xmlns:xlink="http://www.w3.org/1999/xlink" viewBox="0 0 282.15 97.38">
  <defs>
    <style>
      .cls-1 {
        fill: #2d2f33;
      }

      .cls-2 {
        fill: url(#linear-gradient);
      }
    </style>
    <linearGradient id="linear-gradient" x1="252.94" y1="10.84" x2="280.23" y2="26.59" gradientUnits="userSpaceOnUse">
      <stop offset="0" stop-color="#00ffa3"/>
      <stop offset=".2" stop-color="#00d1ff"/>
      <stop offset=".4" stop-color="#8c7cff"/>
      <stop offset=".6" stop-color="#ff7af2"/>
      <stop offset=".8" stop-color="#ff6a6a"/>
      <stop offset="1" stop-color="#ffc96a"/>
    </linearGradient>
  </defs>
  <g id="Layer_1-2" data-name="Layer 1">
    <g>
      <g>
        <path class="cls-1" d="M0,68.06c0-17.89,7.87-31.47,21.77-31.47,9.05,0,15.2,5.93,15.2,14.01,0,4.53-2.05,7.22-5.71,7.22-3.34,0-5.07-2.26-5.07-4.96,0-1.83.75-3.99.75-6.25,0-3.67-2.05-5.5-5.28-5.5-7.76,0-10.99,10.67-10.99,22.85,0,14.01,4.31,25.22,13.15,25.22,4.85,0,10.35-3.67,12.29-17.25h2.59c-1.19,17.89-9.05,25.44-18.75,25.44-12.61,0-19.94-12.07-19.94-29.32Z"/>
        <path class="cls-1" d="M41.29,67.31c0-17.35,8.52-30.72,23.17-30.72,13.9,0,23.17,12.4,23.17,30.07s-8.62,30.72-23.17,30.72-23.17-12.4-23.17-30.07ZM76.75,73.02c0-14.66-4.42-31.69-13.9-31.69-7.65,0-10.78,10.13-10.78,19.62,0,14.66,4.53,31.69,14.01,31.69,7.65,0,10.67-10.13,10.67-19.62Z"/>
        <path class="cls-1" d="M126.12,42.3c0,4.2-2.48,6.9-5.28,6.9-1.94,0-2.8-.75-4.2-2.26-1.4-1.4-1.94-1.83-3.23-1.83-2.48,0-5.39,3.56-7.65,10.13v28.67c0,7.33,1.62,9.05,11.43,9.05v2.69h-29.1v-2.59c6.25,0,7.33-1.62,7.33-8.51v-33.2c0-7.22,0-8.73-6.47-6.04l-1.08-2.48,8.62-3.45,7.33-3.02,1.94,1.62v10.35h.32c3.02-5.71,8.3-11.75,14.23-11.75,3.77,0,5.82,2.16,5.82,5.71Z"/>
        <path class="cls-1" d="M162.55,71.51c0,16.82-3.34,25.87-13.9,25.87-8.41,0-12.83-5.07-12.83-20.16v-34.28h-7.55v-3.99c7.87-.22,12.83-6.04,13.9-16.17h3.88v15.74h12.93v4.42h-12.72v31.47c0,9.59.97,15.95,6.04,15.95s7.22-6.04,7.22-18.86h3.02Z"/>
        <path class="cls-1" d="M204.8,72.59c-2.26,17.35-9.59,24.79-19.72,24.79-12.18,0-19.83-11.53-19.83-29.32s7.54-31.47,20.37-31.47,18.54,11.86,18.54,27.59h-28.46v.21c0,14.66,4.53,25.01,13.47,25.01,4.85,0,10.46-3.77,13.04-16.81h2.59ZM175.81,59.76h18c0-10.35-1.83-18.65-8.19-18.65s-9.16,7.87-9.81,18.65Z"/>
        <path class="cls-1" d="M242.42,85.74c3.13,6.25,5.71,7.33,10.24,7.33v2.59h-24.68v-2.59c6.9,0,6.25-1.08,3.02-7.33l-6.9-13.58-6.58,13.47c-3.02,6.25-3.67,7.44,3.45,7.44v2.59h-19.08v-2.59c5.07,0,7.65-1.08,10.78-7.33l9.16-18.22-9.59-19.08c-3.13-6.25-5.71-7.33-9.81-7.33v-2.59h23.71v2.59c-6.58,0-5.82,1.08-2.59,7.33l6.25,12.29,6.36-12.29c3.23-6.25,4.1-7.33-2.69-7.33v-2.59h17.79v2.59c-4.31,0-7.01,1.08-10.24,7.22l-8.95,16.92,10.35,20.48Z"/>
      </g>
      <g>
        <path d="M0,68.06c0-17.89,7.87-31.47,21.77-31.47,9.05,0,15.2,5.93,15.2,14.01,0,4.53-2.05,7.22-5.71,7.22-3.34,0-5.07-2.26-5.07-4.96,0-1.83.75-3.99.75-6.25,0-3.67-2.05-5.5-5.28-5.5-7.76,0-10.99,10.67-10.99,22.85,0,14.01,4.31,25.22,13.15,25.22,4.85,0,10.35-3.67,12.29-17.25h2.59c-1.19,17.89-9.05,25.44-18.75,25.44-12.61,0-19.94-12.07-19.94-29.32Z"/>
        <path d="M41.29,67.31c0-17.35,8.52-30.72,23.17-30.72,13.9,0,23.17,12.4,23.17,30.07s-8.62,30.72-23.17,30.72-23.17-12.4-23.17-30.07ZM76.75,73.02c0-14.66-4.42-31.69-13.9-31.69-7.65,0-10.78,10.13-10.78,19.62,0,14.66,4.53,31.69,14.01,31.69,7.65,0,10.67-10.13,10.67-19.62Z"/>
        <path d="M126.12,42.3c0,4.2-2.48,6.9-5.28,6.9-1.94,0-2.8-.75-4.2-2.26-1.4-1.4-1.94-1.83-3.23-1.83-2.48,0-5.39,3.56-7.65,10.13v28.67c0,7.33,1.62,9.05,11.43,9.05v2.69h-29.1v-2.59c6.25,0,7.33-1.62,7.33-8.51v-33.2c0-7.22,0-8.73-6.47-6.04l-1.08-2.48,8.62-3.45,7.33-3.02,1.94,1.62v10.35h.32c3.02-5.71,8.3-11.75,14.23-11.75,3.77,0,5.82,2.16,5.82,5.71Z"/>
        <path d="M162.55,71.51c0,16.82-3.34,25.87-13.9,25.87-8.41,0-12.83-5.07-12.83-20.16v-34.28h-7.55v-3.99c7.87-.22,12.83-6.04,13.9-16.17h3.88v15.74h12.93v4.42h-12.72v31.47c0,9.59.97,15.95,6.04,15.95s7.22-6.04,7.22-18.86h3.02Z"/>
        <path d="M204.8,72.59c-2.26,17.35-9.59,24.79-19.72,24.79-12.18,0-19.83-11.53-19.83-29.32s7.54-31.47,20.37-31.47,18.54,11.86,18.54,27.59h-28.46v.21c0,14.66,4.53,25.01,13.47,25.01,4.85,0,10.46-3.77,13.04-16.81h2.59ZM175.81,59.76h18c0-10.35-1.83-18.65-8.19-18.65s-9.16,7.87-9.81,18.65Z"/>
        <path d="M242.42,85.74c3.13,6.25,5.71,7.33,10.24,7.33v2.59h-24.68v-2.59c6.9,0,6.25-1.08,3.02-7.33l-6.9-13.58-6.58,13.47c-3.02,6.25-3.67,7.44,3.45,7.44v2.59h-19.08v-2.59c5.07,0,7.65-1.08,10.78-7.33l9.16-18.22-9.59-19.08c-3.13-6.25-5.71-7.33-9.81-7.33v-2.59h23.71v2.59c-6.58,0-5.82,1.08-2.59,7.33l6.25,12.29,6.36-12.29c3.23-6.25,4.1-7.33-2.69-7.33v-2.59h17.79v2.59c-4.31,0-7.01,1.08-10.24,7.22l-8.95,16.92,10.35,20.48Z"/>
      </g>
    </g>
    <path class="cls-2" d="M266.39,34.82c-8.69,0-15.76-7.07-15.76-15.76,0-4.12,1.58-8.02,4.46-10.98.96-.99,2.55-1.01,3.54-.05.99.96,1.01,2.54.05,3.54-1.96,2.02-3.05,4.68-3.05,7.5,0,5.93,4.83,10.76,10.76,10.76s10.76-4.83,10.76-10.76c0-2.81-1.08-5.48-3.05-7.5-.96-.99-.94-2.57.05-3.54.99-.96,2.57-.94,3.54.05,2.88,2.96,4.46,6.86,4.46,10.98,0,8.69-7.07,15.76-15.76,15.76ZM266.25,16.53c-1.34,0-2.45-1.06-2.5-2.4l-.44-11.53c-.05-1.38,1.02-2.54,2.4-2.59,1.38-.06,2.54,1.02,2.59,2.4l.44,11.53c.05,1.38-1.02,2.54-2.4,2.59-.03,0-.06,0-.1,0Z"/>
  </g>
</svg>